<?xml version="1.0"?>
<svg xmlns="http://www.w3.org/2000/svg" xmlns:xlink="http://www.w3.org/1999/xlink" version="1.1" id="Capa_1" x="0px" y="0px" viewBox="0 0 381.55 381.55" style="enable-background:new 0 0 381.55 381.55;" xml:space="preserve" width="512px" height="512px" class=""><g><path id="XMLID_463_" d="M381.35,241.9c-2.188-30.301-17.093-47.136-30.244-61.989c-7.018-7.926-13.646-15.413-17.549-24.145  c-3.536-7.911-2.265-17.151,3.316-24.114c11.643-14.525,12.889-34.418,3.253-51.915c-3.243-5.889-8.119-10.719-14.101-13.969  c-7.729-4.199-15.755-6.327-23.855-6.327c-24.509,0-44.449,19.939-44.449,44.448c0,10.092,3.301,19.605,9.547,27.513  c5.805,7.349,6.976,17.054,3.057,25.329c-2.941,6.212-7.251,11.812-12.063,17.433c-4.212-5.52-8.653-10.542-12.931-15.373  c-7.923-8.949-15.407-17.401-19.834-27.307c-4.071-9.108-2.61-19.744,3.812-27.756c12.931-16.132,14.309-38.235,3.599-57.684  c-3.589-6.517-8.986-11.863-15.607-15.459c-8.598-4.671-17.523-7.039-26.525-7.039c-27.215,0-49.356,22.141-49.356,49.355  c0,11.207,3.666,21.771,10.601,30.55c6.674,8.45,8.02,19.613,3.512,29.132c-4.468,9.435-11.685,17.589-19.326,26.221  c-4.274,4.828-8.712,9.847-12.92,15.363c-5.058-5.907-9.568-11.798-12.519-18.4c-3.536-7.911-2.265-17.151,3.316-24.114  c11.643-14.525,12.889-34.418,3.253-51.915c-3.243-5.889-8.12-10.719-14.101-13.969c-7.729-4.199-15.755-6.327-23.855-6.327  c-24.509,0-44.448,19.939-44.448,44.448c0,10.092,3.301,19.606,9.547,27.513c5.805,7.349,6.976,17.054,3.057,25.329  c-3.94,8.32-10.333,15.543-17.103,23.19C17.287,194.773,2.387,211.607,0.2,241.902c-2.446,34.04,18.198,79.885,27.188,98.016  c5.531,11.156,16.725,18.086,29.211,18.086h45.534c12.482,0,23.673-6.926,29.207-18.076c0.389-0.783,0.806-1.636,1.235-2.52  c0.098,0.198,0.202,0.412,0.298,0.605c6.114,12.331,18.486,19.99,32.288,19.99h51.198c13.797,0,26.167-7.655,32.282-19.979  c0.098-0.198,0.205-0.417,0.306-0.621c0.428,0.881,0.844,1.732,1.232,2.514c5.531,11.156,16.725,18.086,29.211,18.086h45.534  c12.482,0,23.673-6.926,29.207-18.076C363.129,321.794,383.797,275.94,381.35,241.9z" data-original="#000000" class="active-path" data-old_color="#219ee5" fill="#219ee5"/></g> </svg>
